G75*
%MOIN*%
%OFA0B0*%
%FSLAX25Y25*%
%IPPOS*%
%LPD*%
%AMOC8*
5,1,8,0,0,1.08239X$1,22.5*
%
%ADD10R,0.20000X0.09000*%
%ADD11C,0.01200*%
%ADD12C,0.03969*%
%ADD13R,0.12661X0.12661*%
D10*
X0048606Y0020933D03*
X0048606Y0055733D03*
X0187934Y0054277D03*
X0187934Y0019477D03*
D11*
X0038387Y0014933D02*
X0038387Y0007623D01*
X0197760Y0007623D01*
X0197760Y0013477D01*
X0197454Y0013477D01*
X0196634Y0014297D01*
X0196634Y0059457D01*
X0197454Y0060277D01*
X0197760Y0060277D01*
X0197760Y0090422D01*
X0038387Y0090422D01*
X0038387Y0061733D01*
X0039086Y0061733D01*
X0039906Y0060913D01*
X0039906Y0015753D01*
X0039086Y0014933D01*
X0038387Y0014933D01*
X0038387Y0014597D02*
X0106206Y0014597D01*
X0106206Y0013398D02*
X0038387Y0013398D01*
X0038387Y0012200D02*
X0106206Y0012200D01*
X0106206Y0011025D02*
X0107143Y0010088D01*
X0121130Y0010088D01*
X0122067Y0011025D01*
X0122067Y0025012D01*
X0121130Y0025949D01*
X0107143Y0025949D01*
X0106206Y0025012D01*
X0106206Y0011025D01*
X0106229Y0011001D02*
X0038387Y0011001D01*
X0038387Y0009803D02*
X0197760Y0009803D01*
X0197760Y0011001D02*
X0122043Y0011001D01*
X0122067Y0012200D02*
X0197760Y0012200D01*
X0197760Y0013398D02*
X0122067Y0013398D01*
X0122067Y0014597D02*
X0196634Y0014597D01*
X0196634Y0015795D02*
X0122067Y0015795D01*
X0122067Y0016994D02*
X0196634Y0016994D01*
X0196634Y0018192D02*
X0122067Y0018192D01*
X0122067Y0019391D02*
X0196634Y0019391D01*
X0196634Y0020589D02*
X0122067Y0020589D01*
X0122067Y0021788D02*
X0196634Y0021788D01*
X0196634Y0022987D02*
X0122067Y0022987D01*
X0122067Y0024185D02*
X0196634Y0024185D01*
X0196634Y0025384D02*
X0121695Y0025384D01*
X0106577Y0025384D02*
X0039906Y0025384D01*
X0039906Y0026582D02*
X0196634Y0026582D01*
X0196634Y0027781D02*
X0039906Y0027781D01*
X0039906Y0028979D02*
X0196634Y0028979D01*
X0196634Y0030178D02*
X0039906Y0030178D01*
X0039906Y0031376D02*
X0196634Y0031376D01*
X0196634Y0032575D02*
X0039906Y0032575D01*
X0039906Y0033773D02*
X0196634Y0033773D01*
X0196634Y0034972D02*
X0039906Y0034972D01*
X0039906Y0036170D02*
X0196634Y0036170D01*
X0196634Y0037369D02*
X0039906Y0037369D01*
X0039906Y0038567D02*
X0196634Y0038567D01*
X0196634Y0039766D02*
X0039906Y0039766D01*
X0039906Y0040964D02*
X0196634Y0040964D01*
X0196634Y0042163D02*
X0039906Y0042163D01*
X0039906Y0043361D02*
X0196634Y0043361D01*
X0196634Y0044560D02*
X0039906Y0044560D01*
X0039906Y0045758D02*
X0196634Y0045758D01*
X0196634Y0046957D02*
X0039906Y0046957D01*
X0039906Y0048155D02*
X0196634Y0048155D01*
X0196634Y0049354D02*
X0039906Y0049354D01*
X0039906Y0050552D02*
X0196634Y0050552D01*
X0196634Y0051751D02*
X0039906Y0051751D01*
X0039906Y0052949D02*
X0196634Y0052949D01*
X0196634Y0054148D02*
X0039906Y0054148D01*
X0039906Y0055346D02*
X0196634Y0055346D01*
X0196634Y0056545D02*
X0039906Y0056545D01*
X0039906Y0057743D02*
X0196634Y0057743D01*
X0196634Y0058942D02*
X0039906Y0058942D01*
X0039906Y0060140D02*
X0179137Y0060140D01*
X0179584Y0059694D02*
X0193571Y0059694D01*
X0194508Y0060631D01*
X0194508Y0074618D01*
X0193571Y0075555D01*
X0179584Y0075555D01*
X0178646Y0074618D01*
X0178646Y0060631D01*
X0179584Y0059694D01*
X0178646Y0061339D02*
X0055845Y0061339D01*
X0055775Y0061269D02*
X0056713Y0062206D01*
X0056713Y0076193D01*
X0055775Y0077130D01*
X0041788Y0077130D01*
X0040851Y0076193D01*
X0040851Y0062206D01*
X0041788Y0061269D01*
X0055775Y0061269D01*
X0056713Y0062537D02*
X0178646Y0062537D01*
X0178646Y0063736D02*
X0056713Y0063736D01*
X0056713Y0064934D02*
X0178646Y0064934D01*
X0178646Y0066133D02*
X0056713Y0066133D01*
X0056713Y0067331D02*
X0178646Y0067331D01*
X0178646Y0068530D02*
X0056713Y0068530D01*
X0056713Y0069728D02*
X0178646Y0069728D01*
X0178646Y0070927D02*
X0056713Y0070927D01*
X0056713Y0072125D02*
X0178646Y0072125D01*
X0178646Y0073324D02*
X0056713Y0073324D01*
X0056713Y0074522D02*
X0178646Y0074522D01*
X0194508Y0074522D02*
X0197760Y0074522D01*
X0197760Y0075721D02*
X0056713Y0075721D01*
X0055986Y0076920D02*
X0197760Y0076920D01*
X0197760Y0078118D02*
X0038387Y0078118D01*
X0038387Y0079317D02*
X0197760Y0079317D01*
X0197760Y0080515D02*
X0038387Y0080515D01*
X0038387Y0081714D02*
X0197760Y0081714D01*
X0197760Y0082912D02*
X0038387Y0082912D01*
X0038387Y0084111D02*
X0197760Y0084111D01*
X0197760Y0085309D02*
X0038387Y0085309D01*
X0038387Y0086508D02*
X0197760Y0086508D01*
X0197760Y0087706D02*
X0038387Y0087706D01*
X0038387Y0088905D02*
X0197760Y0088905D01*
X0197760Y0090103D02*
X0038387Y0090103D01*
X0038387Y0076920D02*
X0041578Y0076920D01*
X0040851Y0075721D02*
X0038387Y0075721D01*
X0038387Y0074522D02*
X0040851Y0074522D01*
X0040851Y0073324D02*
X0038387Y0073324D01*
X0038387Y0072125D02*
X0040851Y0072125D01*
X0040851Y0070927D02*
X0038387Y0070927D01*
X0038387Y0069728D02*
X0040851Y0069728D01*
X0040851Y0068530D02*
X0038387Y0068530D01*
X0038387Y0067331D02*
X0040851Y0067331D01*
X0040851Y0066133D02*
X0038387Y0066133D01*
X0038387Y0064934D02*
X0040851Y0064934D01*
X0040851Y0063736D02*
X0038387Y0063736D01*
X0038387Y0062537D02*
X0040851Y0062537D01*
X0041718Y0061339D02*
X0039481Y0061339D01*
X0039906Y0024185D02*
X0106206Y0024185D01*
X0106206Y0022987D02*
X0039906Y0022987D01*
X0039906Y0021788D02*
X0106206Y0021788D01*
X0106206Y0020589D02*
X0039906Y0020589D01*
X0039906Y0019391D02*
X0106206Y0019391D01*
X0106206Y0018192D02*
X0039906Y0018192D01*
X0039906Y0016994D02*
X0106206Y0016994D01*
X0106206Y0015795D02*
X0039906Y0015795D01*
X0038387Y0008604D02*
X0197760Y0008604D01*
X0197318Y0060140D02*
X0194017Y0060140D01*
X0194508Y0061339D02*
X0197760Y0061339D01*
X0197760Y0062537D02*
X0194508Y0062537D01*
X0194508Y0063736D02*
X0197760Y0063736D01*
X0197760Y0064934D02*
X0194508Y0064934D01*
X0194508Y0066133D02*
X0197760Y0066133D01*
X0197760Y0067331D02*
X0194508Y0067331D01*
X0194508Y0068530D02*
X0197760Y0068530D01*
X0197760Y0069728D02*
X0194508Y0069728D01*
X0194508Y0070927D02*
X0197760Y0070927D01*
X0197760Y0072125D02*
X0194508Y0072125D01*
X0194508Y0073324D02*
X0197760Y0073324D01*
D12*
X0191302Y0080223D03*
X0191302Y0087310D03*
X0183428Y0087310D03*
X0175554Y0087310D03*
X0167680Y0087310D03*
X0162168Y0082585D03*
X0167680Y0077073D03*
X0173191Y0071562D03*
X0157443Y0064475D03*
X0151931Y0069199D03*
X0153506Y0058176D03*
X0160593Y0058176D03*
X0145632Y0058176D03*
X0145632Y0050302D03*
X0153506Y0050302D03*
X0160593Y0050302D03*
X0177128Y0046365D03*
X0185002Y0046365D03*
X0192876Y0046365D03*
X0161380Y0030617D03*
X0169254Y0029042D03*
X0177128Y0027467D03*
X0185002Y0027467D03*
X0192876Y0027467D03*
X0153506Y0030617D03*
X0145632Y0030617D03*
X0137758Y0030617D03*
X0129884Y0030617D03*
X0122010Y0030617D03*
X0114136Y0030617D03*
X0098388Y0030617D03*
X0090514Y0030617D03*
X0081853Y0030617D03*
X0098388Y0021168D03*
X0098388Y0011719D03*
X0090514Y0011719D03*
X0082640Y0011719D03*
X0074766Y0011719D03*
X0066892Y0011719D03*
X0059018Y0011719D03*
X0051144Y0011719D03*
X0043270Y0011719D03*
X0043270Y0029042D03*
X0051144Y0029042D03*
X0059018Y0029042D03*
X0085002Y0045577D03*
X0093664Y0045577D03*
X0105475Y0039278D03*
X0114136Y0047152D03*
X0110199Y0054239D03*
X0118073Y0054239D03*
X0124963Y0060538D03*
X0093664Y0053451D03*
X0085002Y0053451D03*
X0066105Y0055814D03*
X0066105Y0063688D03*
X0066105Y0071562D03*
X0072404Y0076286D03*
X0080278Y0076286D03*
X0082640Y0087310D03*
X0074766Y0087310D03*
X0066892Y0087310D03*
X0059018Y0087310D03*
X0051144Y0087310D03*
X0043270Y0087310D03*
X0043270Y0079436D03*
X0043270Y0047940D03*
X0051144Y0047940D03*
X0059018Y0047940D03*
X0066105Y0047940D03*
X0129884Y0010932D03*
X0137758Y0010932D03*
X0145632Y0010932D03*
X0153506Y0010932D03*
X0161380Y0010932D03*
X0169254Y0010932D03*
X0177128Y0010932D03*
X0185002Y0010932D03*
X0192876Y0010932D03*
X0153506Y0087310D03*
X0145632Y0087310D03*
X0137758Y0087310D03*
X0129884Y0087310D03*
D13*
X0186577Y0067625D03*
X0114136Y0018018D03*
X0048782Y0069199D03*
M02*
