G75*
%MOIN*%
%OFA0B0*%
%FSLAX25Y25*%
%IPPOS*%
%LPD*%
%AMOC8*
5,1,8,0,0,1.08239X$1,22.5*
%
%ADD10C,0.00000*%
%ADD11C,0.00400*%
%ADD12C,0.00600*%
%ADD13C,0.01200*%
%ADD14C,0.00100*%
%ADD15C,0.00800*%
D10*
X0124372Y0021955D02*
X0124372Y0024357D01*
X0125573Y0024357D01*
X0125974Y0023957D01*
X0125974Y0023156D01*
X0125573Y0022756D01*
X0124372Y0022756D01*
X0126582Y0022356D02*
X0126983Y0021955D01*
X0127783Y0021955D01*
X0128184Y0022356D01*
X0128184Y0022756D01*
X0127783Y0023156D01*
X0126983Y0023156D01*
X0126582Y0023557D01*
X0126582Y0023957D01*
X0126983Y0024357D01*
X0127783Y0024357D01*
X0128184Y0023957D01*
X0128792Y0023557D02*
X0129593Y0024357D01*
X0130394Y0023557D01*
X0130394Y0021955D01*
X0130394Y0023156D02*
X0128792Y0023156D01*
X0128792Y0023557D02*
X0128792Y0021955D01*
X0131002Y0023156D02*
X0132603Y0023156D01*
X0133212Y0023156D02*
X0134813Y0023156D01*
X0135422Y0023156D02*
X0136223Y0023557D01*
X0136623Y0023557D01*
X0137023Y0023156D01*
X0137023Y0022356D01*
X0136623Y0021955D01*
X0135822Y0021955D01*
X0135422Y0022356D01*
X0135422Y0023156D02*
X0135422Y0024357D01*
X0137023Y0024357D01*
X0137632Y0023957D02*
X0138032Y0024357D01*
X0138833Y0024357D01*
X0139233Y0023957D01*
X0137632Y0022356D01*
X0138032Y0021955D01*
X0138833Y0021955D01*
X0139233Y0022356D01*
X0139233Y0023957D01*
X0139842Y0023156D02*
X0141443Y0023156D01*
X0142051Y0022356D02*
X0142452Y0021955D01*
X0143252Y0021955D01*
X0143653Y0022356D01*
X0143653Y0022756D01*
X0143252Y0023156D01*
X0142852Y0023156D01*
X0143252Y0023156D02*
X0143653Y0023557D01*
X0143653Y0023957D01*
X0143252Y0024357D01*
X0142452Y0024357D01*
X0142051Y0023957D01*
X0141043Y0024357D02*
X0139842Y0023156D01*
X0141043Y0021955D02*
X0141043Y0024357D01*
X0137632Y0023957D02*
X0137632Y0022356D01*
X0144261Y0023156D02*
X0145863Y0023156D01*
X0145062Y0023957D02*
X0145062Y0022356D01*
X0148681Y0021955D02*
X0150282Y0021955D01*
X0150891Y0021955D02*
X0150891Y0024357D01*
X0152492Y0021955D01*
X0152492Y0024357D01*
X0153101Y0023557D02*
X0153902Y0024357D01*
X0154702Y0023557D01*
X0154702Y0021955D01*
X0154702Y0023156D02*
X0153101Y0023156D01*
X0153101Y0023557D02*
X0153101Y0021955D01*
X0153546Y0019660D02*
X0153546Y0015656D01*
X0155894Y0015656D02*
X0158563Y0015656D01*
X0155894Y0015656D02*
X0155894Y0019660D01*
X0158563Y0019660D01*
X0158722Y0021955D02*
X0159122Y0022356D01*
X0159122Y0023557D01*
X0159731Y0023557D02*
X0160131Y0023557D01*
X0160131Y0021955D01*
X0159731Y0021955D02*
X0160531Y0021955D01*
X0161604Y0022356D02*
X0162004Y0021955D01*
X0161604Y0022356D02*
X0161604Y0023957D01*
X0161204Y0023557D02*
X0162004Y0023557D01*
X0162677Y0023156D02*
X0163077Y0023557D01*
X0163878Y0023557D01*
X0164278Y0023156D01*
X0164278Y0021955D01*
X0162677Y0021955D02*
X0162677Y0024357D01*
X0160131Y0024357D02*
X0160131Y0024758D01*
X0157521Y0023557D02*
X0157521Y0022356D01*
X0157921Y0021955D01*
X0158321Y0022356D01*
X0158722Y0021955D01*
X0154880Y0019660D02*
X0152211Y0019660D01*
X0151197Y0018325D02*
X0149863Y0019660D01*
X0148528Y0018325D01*
X0148528Y0015656D01*
X0146179Y0015656D02*
X0146179Y0019660D01*
X0144845Y0019660D02*
X0147514Y0019660D01*
X0148528Y0017658D02*
X0151197Y0017658D01*
X0151197Y0018325D02*
X0151197Y0015656D01*
X0155894Y0017658D02*
X0157229Y0017658D01*
X0163261Y0018992D02*
X0163928Y0019660D01*
X0165262Y0019660D01*
X0165930Y0018992D01*
X0165930Y0018325D01*
X0163261Y0015656D01*
X0165930Y0015656D01*
X0166944Y0016323D02*
X0167611Y0015656D01*
X0168945Y0015656D01*
X0169613Y0016323D01*
X0169613Y0018992D01*
X0166944Y0016323D01*
X0166944Y0018992D01*
X0167611Y0019660D01*
X0168945Y0019660D01*
X0169613Y0018992D01*
X0170627Y0018325D02*
X0171961Y0019660D01*
X0171961Y0015656D01*
X0170627Y0015656D02*
X0173296Y0015656D01*
X0174310Y0016323D02*
X0174977Y0015656D01*
X0176312Y0015656D01*
X0176979Y0016323D01*
X0176979Y0016991D01*
X0176312Y0017658D01*
X0174310Y0017658D01*
X0174310Y0016323D01*
X0174310Y0017658D02*
X0175645Y0018992D01*
X0176979Y0019660D01*
X0178210Y0021955D02*
X0178210Y0024357D01*
X0177410Y0024357D02*
X0179011Y0024357D01*
X0179619Y0024357D02*
X0179619Y0021955D01*
X0181221Y0021955D01*
X0181829Y0021955D02*
X0183431Y0021955D01*
X0182630Y0023156D02*
X0181829Y0023156D01*
X0181829Y0024357D02*
X0181829Y0021955D01*
X0180420Y0023156D02*
X0179619Y0023156D01*
X0176801Y0023156D02*
X0175200Y0023156D01*
X0174591Y0023557D02*
X0173390Y0023557D01*
X0172990Y0023156D01*
X0173390Y0022756D01*
X0174191Y0022756D01*
X0174591Y0022356D01*
X0174191Y0021955D01*
X0172990Y0021955D01*
X0172381Y0021955D02*
X0172381Y0023156D01*
X0171981Y0023557D01*
X0171180Y0023557D01*
X0171180Y0022756D02*
X0172381Y0022756D01*
X0172381Y0021955D02*
X0171180Y0021955D01*
X0170780Y0022356D01*
X0171180Y0022756D01*
X0170107Y0021955D02*
X0169307Y0021955D01*
X0169707Y0021955D02*
X0169707Y0023557D01*
X0169307Y0023557D01*
X0168698Y0023557D02*
X0168298Y0023156D01*
X0167097Y0023156D01*
X0167097Y0021955D02*
X0168298Y0021955D01*
X0168698Y0022356D01*
X0168698Y0022756D01*
X0168298Y0023156D01*
X0168698Y0023557D02*
X0168698Y0023957D01*
X0168298Y0024357D01*
X0167097Y0024357D01*
X0167097Y0021955D01*
X0169707Y0024357D02*
X0169707Y0024758D01*
X0179619Y0024357D02*
X0181221Y0024357D01*
X0181829Y0024357D02*
X0183431Y0024357D01*
X0148681Y0024357D02*
X0148681Y0021955D01*
X0132203Y0021955D02*
X0132203Y0024357D01*
X0131002Y0023156D01*
X0112090Y0072785D02*
X0112090Y0075145D01*
D11*
X0133090Y0066581D02*
X0133090Y0063511D01*
X0133090Y0065046D02*
X0128486Y0065046D01*
X0130020Y0063511D01*
X0129253Y0061977D02*
X0128486Y0061209D01*
X0128486Y0059675D01*
X0129253Y0058907D01*
X0132322Y0058907D01*
X0133090Y0059675D01*
X0133090Y0061209D01*
X0132322Y0061977D01*
X0165686Y0060401D02*
X0168755Y0060401D01*
X0170290Y0060401D02*
X0173359Y0063470D01*
X0173359Y0064238D01*
X0172592Y0065005D01*
X0171057Y0065005D01*
X0170290Y0064238D01*
X0165686Y0065005D02*
X0165686Y0060401D01*
X0170290Y0060401D02*
X0173359Y0060401D01*
X0156513Y0077329D02*
X0153444Y0077329D01*
X0156513Y0080399D01*
X0156513Y0081166D01*
X0155746Y0081933D01*
X0154211Y0081933D01*
X0153444Y0081166D01*
X0151909Y0081933D02*
X0150375Y0081933D01*
X0151142Y0081933D02*
X0151142Y0078097D01*
X0150375Y0077329D01*
X0149607Y0077329D01*
X0148840Y0078097D01*
X0096629Y0062832D02*
X0096629Y0062065D01*
X0095862Y0061297D01*
X0096629Y0060530D01*
X0096629Y0059763D01*
X0095862Y0058996D01*
X0094327Y0058996D01*
X0093560Y0059763D01*
X0092025Y0059763D02*
X0091258Y0058996D01*
X0089723Y0058996D01*
X0088956Y0059763D01*
X0088956Y0062832D01*
X0089723Y0063599D01*
X0091258Y0063599D01*
X0092025Y0062832D01*
X0093560Y0062832D02*
X0094327Y0063599D01*
X0095862Y0063599D01*
X0096629Y0062832D01*
X0095862Y0061297D02*
X0095094Y0061297D01*
X0083608Y0061630D02*
X0079004Y0061630D01*
X0080539Y0060096D01*
X0083608Y0060096D02*
X0083608Y0063165D01*
X0083608Y0058561D02*
X0083608Y0055492D01*
X0079004Y0055492D01*
X0080870Y0070936D02*
X0081637Y0070936D01*
X0082404Y0071703D01*
X0082404Y0075540D01*
X0081637Y0075540D02*
X0083172Y0075540D01*
X0084706Y0074005D02*
X0086241Y0075540D01*
X0086241Y0070936D01*
X0084706Y0070936D02*
X0087776Y0070936D01*
X0080870Y0070936D02*
X0080102Y0071703D01*
X0160698Y0039713D02*
X0163768Y0039713D01*
X0165302Y0038178D02*
X0166837Y0039713D01*
X0166837Y0035109D01*
X0165302Y0035109D02*
X0168372Y0035109D01*
X0162233Y0037411D02*
X0160698Y0037411D01*
X0160698Y0035109D02*
X0160698Y0039713D01*
X0130946Y0031270D02*
X0127877Y0031270D01*
X0129412Y0031270D02*
X0129412Y0035873D01*
X0127877Y0034339D01*
X0126343Y0035873D02*
X0126343Y0032037D01*
X0125575Y0031270D01*
X0124041Y0031270D01*
X0123273Y0032037D01*
X0123273Y0035873D01*
X0104007Y0026444D02*
X0102922Y0027530D01*
X0101837Y0027530D01*
X0104007Y0026444D02*
X0104007Y0025359D01*
X0103465Y0024817D01*
X0099124Y0024817D01*
X0101294Y0022646D01*
X0098582Y0026444D02*
X0101294Y0029157D01*
X0099124Y0031328D02*
X0096411Y0028615D01*
X0096411Y0027530D01*
X0097496Y0026444D01*
X0098582Y0026444D01*
X0088572Y0026037D02*
X0087804Y0025270D01*
X0084735Y0025270D01*
X0083968Y0026037D01*
X0083968Y0027572D01*
X0084735Y0028339D01*
X0084735Y0029873D02*
X0083968Y0030641D01*
X0083968Y0032175D01*
X0084735Y0032943D01*
X0085502Y0032943D01*
X0088572Y0029873D01*
X0088572Y0032943D01*
X0087804Y0028339D02*
X0088572Y0027572D01*
X0088572Y0026037D01*
X0074798Y0020278D02*
X0074798Y0015674D01*
X0076332Y0015674D02*
X0073263Y0015674D01*
X0071728Y0016442D02*
X0071728Y0019511D01*
X0070961Y0020278D01*
X0068659Y0020278D01*
X0068659Y0015674D01*
X0070961Y0015674D01*
X0071728Y0016442D01*
X0073263Y0018744D02*
X0074798Y0020278D01*
D12*
X0077098Y0026907D02*
X0077098Y0030107D01*
X0074898Y0030107D01*
X0068098Y0030107D02*
X0065898Y0030107D01*
X0065898Y0026907D01*
D13*
X0090042Y0070814D02*
X0093979Y0070814D01*
X0090042Y0070814D02*
X0090042Y0074751D01*
X0117601Y0070814D02*
X0121538Y0070814D01*
X0121510Y0070885D02*
X0121510Y0074751D01*
X0121538Y0074751D01*
X0121538Y0086562D02*
X0121538Y0090499D01*
X0090042Y0090499D02*
X0090042Y0086562D01*
D14*
X0099304Y0067007D02*
X0100055Y0067007D01*
X0100305Y0066756D01*
X0100305Y0066256D01*
X0100055Y0066006D01*
X0099304Y0066006D01*
X0099304Y0065505D02*
X0099304Y0067007D01*
X0100778Y0066756D02*
X0100778Y0065756D01*
X0101028Y0065505D01*
X0101528Y0065505D01*
X0101778Y0065756D01*
X0101778Y0066756D01*
X0101528Y0067007D01*
X0101028Y0067007D01*
X0100778Y0066756D01*
X0102251Y0067007D02*
X0102251Y0065505D01*
X0102751Y0066006D01*
X0103252Y0065505D01*
X0103252Y0067007D01*
X0103724Y0067007D02*
X0103724Y0065505D01*
X0104725Y0065505D01*
X0105197Y0065505D02*
X0105197Y0067007D01*
X0105948Y0067007D01*
X0106198Y0066756D01*
X0106198Y0066256D01*
X0105948Y0066006D01*
X0105197Y0066006D01*
X0105698Y0066006D02*
X0106198Y0065505D01*
X0104225Y0066256D02*
X0103724Y0066256D01*
X0103724Y0067007D02*
X0104725Y0067007D01*
D15*
X0038113Y0020026D02*
X0032404Y0020026D01*
X0032404Y0030459D01*
X0023939Y0030459D01*
X0020987Y0027507D01*
X0006026Y0027507D01*
X0006026Y0030853D01*
X0001400Y0030853D01*
X0001400Y0045814D01*
X0006026Y0045814D01*
X0006026Y0049160D01*
X0020987Y0049160D01*
X0023939Y0046207D01*
X0032404Y0046207D01*
X0032404Y0056640D01*
X0038113Y0056640D01*
X0038113Y0053491D02*
X0038113Y0023176D01*
X0198428Y0021719D02*
X0198428Y0052034D01*
X0198428Y0055184D02*
X0204136Y0055184D01*
X0204136Y0044751D01*
X0212601Y0044751D01*
X0215554Y0047703D01*
X0230514Y0047703D01*
X0230514Y0044357D01*
X0235140Y0044357D01*
X0235140Y0029396D01*
X0230514Y0029396D01*
X0230514Y0026050D01*
X0215554Y0026050D01*
X0212601Y0029003D01*
X0204136Y0029003D01*
X0204136Y0018570D01*
X0198428Y0018570D01*
M02*
