G75*
%MOIN*%
%OFA0B0*%
%FSLAX25Y25*%
%IPPOS*%
%LPD*%
%AMOC8*
5,1,8,0,0,1.08239X$1,22.5*
%
%ADD10R,0.02756X0.03543*%
%ADD11R,0.03543X0.02756*%
%ADD12R,0.03937X0.05512*%
%ADD13R,0.02402X0.04902*%
%ADD14R,0.04094X0.07087*%
%ADD15R,0.05118X0.05906*%
%ADD16R,0.05906X0.05118*%
%ADD17R,0.07087X0.05906*%
%ADD18R,0.01575X0.05512*%
%ADD19R,0.03110X0.06614*%
%ADD20R,0.08110X0.06614*%
%ADD21R,0.03110X0.08307*%
%ADD22R,0.02362X0.03150*%
%ADD23R,0.03150X0.03543*%
%ADD24R,0.20000X0.09000*%
%ADD25C,0.01000*%
%ADD26C,0.03969*%
%ADD27C,0.06600*%
%ADD28C,0.03200*%
%ADD29C,0.04000*%
%ADD30C,0.02400*%
%ADD31C,0.01600*%
%ADD32C,0.01200*%
%ADD33R,0.12661X0.12661*%
D10*
X0082798Y0038491D03*
X0087916Y0038491D03*
X0135672Y0061522D03*
X0140790Y0061522D03*
D11*
X0101144Y0061129D03*
X0101144Y0056010D03*
D12*
X0071498Y0031837D03*
X0067758Y0023176D03*
X0075239Y0023176D03*
D13*
X0150435Y0037605D03*
X0150435Y0044810D03*
D14*
X0144018Y0040853D03*
X0156853Y0040853D03*
D15*
X0082561Y0066562D03*
X0075081Y0066562D03*
D16*
X0075160Y0055932D03*
X0075160Y0048451D03*
X0142483Y0071325D03*
X0142483Y0078806D03*
X0169057Y0055814D03*
X0169057Y0048333D03*
D17*
X0120294Y0082625D03*
X0091286Y0082625D03*
D18*
X0100672Y0071995D03*
X0103231Y0071995D03*
X0105790Y0071995D03*
X0108349Y0071995D03*
X0110908Y0071995D03*
D19*
X0125002Y0053609D03*
X0125002Y0040617D03*
X0135239Y0040617D03*
D20*
X0132876Y0053609D03*
D21*
X0130120Y0042231D03*
D22*
G36*
X0113428Y0038126D02*
X0111758Y0039796D01*
X0113984Y0042022D01*
X0115654Y0040352D01*
X0113428Y0038126D01*
G37*
G36*
X0097837Y0040352D02*
X0099507Y0038682D01*
X0097281Y0036456D01*
X0095611Y0038126D01*
X0097837Y0040352D01*
G37*
G36*
X0104519Y0029218D02*
X0102849Y0030888D01*
X0105075Y0033114D01*
X0106745Y0031444D01*
X0104519Y0029218D01*
G37*
D23*
G36*
X0104102Y0047450D02*
X0106329Y0049677D01*
X0108832Y0047174D01*
X0106605Y0044947D01*
X0104102Y0047450D01*
G37*
D24*
X0048606Y0055733D03*
X0048606Y0038333D03*
X0048606Y0020933D03*
X0187934Y0019477D03*
X0187934Y0036877D03*
X0187934Y0054277D03*
D25*
X0038287Y0015033D02*
X0038287Y0007523D01*
X0197601Y0007523D01*
X0197601Y0013577D01*
X0197495Y0013577D01*
X0196734Y0014338D01*
X0196734Y0029829D01*
X0174766Y0029829D01*
X0168467Y0036129D01*
X0161380Y0036129D01*
X0159806Y0034554D01*
X0159806Y0027467D01*
X0159018Y0026680D01*
X0065317Y0026680D01*
X0065317Y0031404D01*
X0039806Y0031404D01*
X0039806Y0015795D01*
X0039045Y0015033D01*
X0038287Y0015033D01*
X0038287Y0014195D02*
X0106306Y0014195D01*
X0106306Y0013197D02*
X0038287Y0013197D01*
X0038287Y0012198D02*
X0106306Y0012198D01*
X0106306Y0011200D02*
X0038287Y0011200D01*
X0038287Y0010201D02*
X0107170Y0010201D01*
X0107184Y0010188D02*
X0121088Y0010188D01*
X0121967Y0011066D01*
X0121967Y0024970D01*
X0121088Y0025849D01*
X0107184Y0025849D01*
X0106306Y0024970D01*
X0106306Y0011066D01*
X0107184Y0010188D01*
X0106306Y0015194D02*
X0039205Y0015194D01*
X0039806Y0016192D02*
X0106306Y0016192D01*
X0106306Y0017191D02*
X0039806Y0017191D01*
X0039806Y0018189D02*
X0106306Y0018189D01*
X0106306Y0019188D02*
X0039806Y0019188D01*
X0039806Y0020187D02*
X0106306Y0020187D01*
X0106306Y0021185D02*
X0039806Y0021185D01*
X0039806Y0022184D02*
X0106306Y0022184D01*
X0106306Y0023182D02*
X0039806Y0023182D01*
X0039806Y0024181D02*
X0106306Y0024181D01*
X0106514Y0025179D02*
X0039806Y0025179D01*
X0039806Y0026178D02*
X0196734Y0026178D01*
X0196734Y0027176D02*
X0159514Y0027176D01*
X0159018Y0027467D02*
X0077128Y0027467D01*
X0077128Y0034554D01*
X0100750Y0034554D01*
X0102325Y0036129D01*
X0102325Y0042428D01*
X0081065Y0042428D01*
X0081065Y0057388D01*
X0117286Y0057388D01*
X0117286Y0044003D01*
X0109412Y0044003D01*
X0108624Y0043215D01*
X0108624Y0036129D01*
X0110199Y0034554D01*
X0146420Y0034554D01*
X0148782Y0036916D01*
X0151931Y0036916D01*
X0154294Y0034554D01*
X0159018Y0034554D01*
X0159018Y0027467D01*
X0159018Y0028175D02*
X0077128Y0028175D01*
X0077128Y0029173D02*
X0159018Y0029173D01*
X0159806Y0029173D02*
X0196734Y0029173D01*
X0196734Y0028175D02*
X0159806Y0028175D01*
X0159806Y0030172D02*
X0174424Y0030172D01*
X0173425Y0031170D02*
X0159806Y0031170D01*
X0159018Y0031170D02*
X0077128Y0031170D01*
X0077128Y0030172D02*
X0159018Y0030172D01*
X0159018Y0032169D02*
X0077128Y0032169D01*
X0077128Y0033167D02*
X0159018Y0033167D01*
X0159806Y0033167D02*
X0171428Y0033167D01*
X0170430Y0034166D02*
X0159806Y0034166D01*
X0159018Y0034166D02*
X0077128Y0034166D01*
X0065317Y0031170D02*
X0039806Y0031170D01*
X0039806Y0030172D02*
X0065317Y0030172D01*
X0065317Y0029173D02*
X0039806Y0029173D01*
X0039806Y0028175D02*
X0065317Y0028175D01*
X0065317Y0027176D02*
X0039806Y0027176D01*
X0081065Y0043152D02*
X0108624Y0043152D01*
X0108624Y0042154D02*
X0102325Y0042154D01*
X0102325Y0041155D02*
X0108624Y0041155D01*
X0108624Y0040157D02*
X0102325Y0040157D01*
X0102325Y0039158D02*
X0108624Y0039158D01*
X0108624Y0038160D02*
X0102325Y0038160D01*
X0102325Y0037161D02*
X0108624Y0037161D01*
X0108624Y0036163D02*
X0102325Y0036163D01*
X0101361Y0035164D02*
X0109589Y0035164D01*
X0129097Y0035341D02*
X0129097Y0045577D01*
X0121223Y0045577D01*
X0121223Y0044003D01*
X0117286Y0044003D01*
X0117286Y0056601D01*
X0125160Y0064475D01*
X0127522Y0064475D01*
X0127522Y0059751D01*
X0125987Y0058216D01*
X0122909Y0058216D01*
X0122869Y0058176D01*
X0121223Y0058176D01*
X0121223Y0047940D01*
X0139333Y0047940D01*
X0139333Y0058963D01*
X0147994Y0058963D01*
X0147994Y0046365D01*
X0140120Y0046365D01*
X0139333Y0045577D01*
X0131459Y0045577D01*
X0131459Y0035341D01*
X0129097Y0035341D01*
X0129097Y0036163D02*
X0131459Y0036163D01*
X0131459Y0037161D02*
X0129097Y0037161D01*
X0129097Y0038160D02*
X0131459Y0038160D01*
X0131459Y0039158D02*
X0129097Y0039158D01*
X0129097Y0040157D02*
X0131459Y0040157D01*
X0131459Y0041155D02*
X0129097Y0041155D01*
X0129097Y0042154D02*
X0131459Y0042154D01*
X0131459Y0043152D02*
X0129097Y0043152D01*
X0129097Y0044151D02*
X0131459Y0044151D01*
X0131459Y0045149D02*
X0129097Y0045149D01*
X0121223Y0045149D02*
X0117286Y0045149D01*
X0081065Y0045149D01*
X0081065Y0044151D02*
X0117286Y0044151D01*
X0121223Y0044151D01*
X0117286Y0046148D02*
X0081065Y0046148D01*
X0081065Y0047146D02*
X0117286Y0047146D01*
X0147994Y0047146D01*
X0147994Y0048145D02*
X0139333Y0048145D01*
X0139333Y0049143D02*
X0147994Y0049143D01*
X0145427Y0048145D02*
X0163743Y0048145D01*
X0163743Y0049143D02*
X0144429Y0049143D01*
X0143430Y0050142D02*
X0163743Y0050142D01*
X0163743Y0051140D02*
X0142432Y0051140D01*
X0141433Y0052139D02*
X0163743Y0052139D01*
X0163743Y0053137D02*
X0140435Y0053137D01*
X0139333Y0053137D02*
X0147994Y0053137D01*
X0147994Y0052139D02*
X0139333Y0052139D01*
X0139333Y0051140D02*
X0147994Y0051140D01*
X0147994Y0050142D02*
X0139333Y0050142D01*
X0136577Y0050696D02*
X0136577Y0065262D01*
X0129522Y0065262D01*
X0129522Y0058922D01*
X0129491Y0058891D01*
X0129491Y0050696D01*
X0136577Y0050696D01*
X0136577Y0051140D02*
X0129491Y0051140D01*
X0129491Y0052139D02*
X0136577Y0052139D01*
X0136577Y0053137D02*
X0129491Y0053137D01*
X0129491Y0054136D02*
X0136577Y0054136D01*
X0136577Y0055134D02*
X0129491Y0055134D01*
X0129491Y0056133D02*
X0136577Y0056133D01*
X0136577Y0057131D02*
X0129491Y0057131D01*
X0129491Y0058130D02*
X0136577Y0058130D01*
X0136577Y0059128D02*
X0129522Y0059128D01*
X0129522Y0060127D02*
X0136577Y0060127D01*
X0136577Y0061125D02*
X0129522Y0061125D01*
X0129522Y0062124D02*
X0136577Y0062124D01*
X0136577Y0063122D02*
X0129522Y0063122D01*
X0127522Y0063122D02*
X0123807Y0063122D01*
X0122809Y0062124D02*
X0127522Y0062124D01*
X0127522Y0061125D02*
X0121810Y0061125D01*
X0120812Y0060127D02*
X0127522Y0060127D01*
X0126900Y0059128D02*
X0119813Y0059128D01*
X0118815Y0058130D02*
X0121223Y0058130D01*
X0121223Y0057131D02*
X0117816Y0057131D01*
X0117286Y0057131D02*
X0081065Y0057131D01*
X0081065Y0056133D02*
X0117286Y0056133D01*
X0121223Y0056133D01*
X0121223Y0055134D02*
X0117286Y0055134D01*
X0081065Y0055134D01*
X0081065Y0054136D02*
X0117286Y0054136D01*
X0121223Y0054136D01*
X0121223Y0053137D02*
X0117286Y0053137D01*
X0081065Y0053137D01*
X0081065Y0052139D02*
X0117286Y0052139D01*
X0121223Y0052139D01*
X0121223Y0051140D02*
X0117286Y0051140D01*
X0081065Y0051140D01*
X0081065Y0050142D02*
X0117286Y0050142D01*
X0121223Y0050142D01*
X0121223Y0049143D02*
X0117286Y0049143D01*
X0081065Y0049143D01*
X0081065Y0048145D02*
X0117286Y0048145D01*
X0121223Y0048145D01*
X0117286Y0046148D02*
X0139903Y0046148D01*
X0146426Y0047146D02*
X0163743Y0047146D01*
X0163743Y0046365D02*
X0153506Y0046365D01*
X0152719Y0045577D01*
X0147994Y0045577D01*
X0139333Y0054239D01*
X0139333Y0065262D01*
X0147994Y0065262D01*
X0147994Y0073136D01*
X0154294Y0073136D01*
X0163743Y0063688D01*
X0163743Y0046365D01*
X0174766Y0046148D02*
X0196734Y0046148D01*
X0196734Y0047146D02*
X0174766Y0047146D01*
X0174766Y0048145D02*
X0196734Y0048145D01*
X0196734Y0049143D02*
X0174766Y0049143D01*
X0174766Y0050142D02*
X0196734Y0050142D01*
X0196734Y0051140D02*
X0174766Y0051140D01*
X0174766Y0052139D02*
X0196734Y0052139D01*
X0196734Y0053137D02*
X0174766Y0053137D01*
X0174766Y0054136D02*
X0196734Y0054136D01*
X0196734Y0055134D02*
X0174766Y0055134D01*
X0174766Y0056133D02*
X0196734Y0056133D01*
X0196734Y0057131D02*
X0174766Y0057131D01*
X0174766Y0058130D02*
X0196734Y0058130D01*
X0196734Y0059128D02*
X0174766Y0059128D01*
X0174766Y0060127D02*
X0179292Y0060127D01*
X0179625Y0059794D02*
X0193529Y0059794D01*
X0194408Y0060673D01*
X0194408Y0074577D01*
X0193529Y0075455D01*
X0179625Y0075455D01*
X0178746Y0074577D01*
X0178746Y0060673D01*
X0179625Y0059794D01*
X0178746Y0061125D02*
X0174766Y0061125D01*
X0174766Y0062124D02*
X0178746Y0062124D01*
X0178746Y0063122D02*
X0174766Y0063122D01*
X0174766Y0064121D02*
X0178746Y0064121D01*
X0178746Y0065120D02*
X0174766Y0065120D01*
X0174766Y0065262D02*
X0155869Y0084160D01*
X0133821Y0084160D01*
X0115711Y0066050D01*
X0114136Y0066050D01*
X0114136Y0077073D01*
X0107837Y0077073D01*
X0107837Y0076051D01*
X0101905Y0076051D01*
X0101143Y0075289D01*
X0101143Y0068700D01*
X0101905Y0067939D01*
X0107837Y0067939D01*
X0107837Y0065262D01*
X0093664Y0065262D01*
X0086577Y0072349D01*
X0069254Y0072349D01*
X0069254Y0045577D01*
X0039806Y0045577D01*
X0039806Y0060872D01*
X0039045Y0061633D01*
X0038827Y0061633D01*
X0039333Y0090459D01*
X0197860Y0090459D01*
X0197860Y0060177D01*
X0197495Y0060177D01*
X0196734Y0059415D01*
X0196734Y0044003D01*
X0174766Y0044003D01*
X0174766Y0065262D01*
X0173911Y0066118D02*
X0178746Y0066118D01*
X0178746Y0067117D02*
X0172912Y0067117D01*
X0171914Y0068115D02*
X0178746Y0068115D01*
X0178746Y0069114D02*
X0170915Y0069114D01*
X0169917Y0070112D02*
X0178746Y0070112D01*
X0178746Y0071111D02*
X0168918Y0071111D01*
X0167920Y0072109D02*
X0178746Y0072109D01*
X0178746Y0073108D02*
X0166921Y0073108D01*
X0165922Y0074106D02*
X0178746Y0074106D01*
X0179274Y0075105D02*
X0164924Y0075105D01*
X0163925Y0076103D02*
X0197860Y0076103D01*
X0197860Y0075105D02*
X0193880Y0075105D01*
X0194408Y0074106D02*
X0197860Y0074106D01*
X0197860Y0073108D02*
X0194408Y0073108D01*
X0194408Y0072109D02*
X0197860Y0072109D01*
X0197860Y0071111D02*
X0194408Y0071111D01*
X0194408Y0070112D02*
X0197860Y0070112D01*
X0197860Y0069114D02*
X0194408Y0069114D01*
X0194408Y0068115D02*
X0197860Y0068115D01*
X0197860Y0067117D02*
X0194408Y0067117D01*
X0194408Y0066118D02*
X0197860Y0066118D01*
X0197860Y0065120D02*
X0194408Y0065120D01*
X0194408Y0064121D02*
X0197860Y0064121D01*
X0197860Y0063122D02*
X0194408Y0063122D01*
X0194408Y0062124D02*
X0197860Y0062124D01*
X0197860Y0061125D02*
X0194408Y0061125D01*
X0193862Y0060127D02*
X0197446Y0060127D01*
X0163743Y0060127D02*
X0139333Y0060127D01*
X0139333Y0061125D02*
X0163743Y0061125D01*
X0163743Y0062124D02*
X0139333Y0062124D01*
X0139333Y0063122D02*
X0163743Y0063122D01*
X0163309Y0064121D02*
X0139333Y0064121D01*
X0139333Y0065120D02*
X0162311Y0065120D01*
X0161312Y0066118D02*
X0147994Y0066118D01*
X0147994Y0067117D02*
X0160314Y0067117D01*
X0159315Y0068115D02*
X0147994Y0068115D01*
X0147994Y0069114D02*
X0158317Y0069114D01*
X0157318Y0070112D02*
X0147994Y0070112D01*
X0147994Y0071111D02*
X0156320Y0071111D01*
X0155321Y0072109D02*
X0147994Y0072109D01*
X0147994Y0073108D02*
X0154323Y0073108D01*
X0162927Y0077102D02*
X0197860Y0077102D01*
X0197860Y0078100D02*
X0161928Y0078100D01*
X0160930Y0079099D02*
X0197860Y0079099D01*
X0197860Y0080097D02*
X0159931Y0080097D01*
X0158933Y0081096D02*
X0197860Y0081096D01*
X0197860Y0082094D02*
X0157934Y0082094D01*
X0156936Y0083093D02*
X0197860Y0083093D01*
X0197860Y0084091D02*
X0155937Y0084091D01*
X0133752Y0084091D02*
X0125337Y0084091D01*
X0125337Y0083093D02*
X0132754Y0083093D01*
X0131755Y0082094D02*
X0125337Y0082094D01*
X0125337Y0081096D02*
X0130757Y0081096D01*
X0129758Y0080097D02*
X0125337Y0080097D01*
X0125337Y0079099D02*
X0128760Y0079099D01*
X0127761Y0078100D02*
X0039116Y0078100D01*
X0039099Y0077102D02*
X0126763Y0077102D01*
X0125337Y0079051D02*
X0124458Y0078172D01*
X0116129Y0078172D01*
X0115250Y0079051D01*
X0115250Y0086199D01*
X0116129Y0087077D01*
X0124458Y0087077D01*
X0125337Y0086199D01*
X0125337Y0079051D01*
X0125764Y0076103D02*
X0114136Y0076103D01*
X0114136Y0075105D02*
X0124766Y0075105D01*
X0123767Y0074106D02*
X0114136Y0074106D01*
X0114136Y0073108D02*
X0122769Y0073108D01*
X0121770Y0072109D02*
X0114136Y0072109D01*
X0114136Y0071111D02*
X0120772Y0071111D01*
X0119773Y0070112D02*
X0114136Y0070112D01*
X0114136Y0069114D02*
X0118775Y0069114D01*
X0117776Y0068115D02*
X0114136Y0068115D01*
X0114136Y0067117D02*
X0116778Y0067117D01*
X0115779Y0066118D02*
X0114136Y0066118D01*
X0107837Y0066118D02*
X0092808Y0066118D01*
X0091810Y0067117D02*
X0107837Y0067117D01*
X0101729Y0068115D02*
X0090811Y0068115D01*
X0089813Y0069114D02*
X0101143Y0069114D01*
X0101143Y0070112D02*
X0088814Y0070112D01*
X0087816Y0071111D02*
X0101143Y0071111D01*
X0101143Y0072109D02*
X0086817Y0072109D01*
X0101143Y0073108D02*
X0056613Y0073108D01*
X0056613Y0074106D02*
X0101143Y0074106D01*
X0101143Y0075105D02*
X0056613Y0075105D01*
X0056613Y0076103D02*
X0107837Y0076103D01*
X0115250Y0079099D02*
X0096329Y0079099D01*
X0096329Y0079051D02*
X0096329Y0086199D01*
X0095450Y0087077D01*
X0087121Y0087077D01*
X0086243Y0086199D01*
X0086243Y0079051D01*
X0087121Y0078172D01*
X0095450Y0078172D01*
X0096329Y0079051D01*
X0096329Y0080097D02*
X0115250Y0080097D01*
X0115250Y0081096D02*
X0096329Y0081096D01*
X0096329Y0082094D02*
X0115250Y0082094D01*
X0115250Y0083093D02*
X0096329Y0083093D01*
X0096329Y0084091D02*
X0115250Y0084091D01*
X0115250Y0085090D02*
X0096329Y0085090D01*
X0096329Y0086088D02*
X0115250Y0086088D01*
X0125337Y0086088D02*
X0197860Y0086088D01*
X0197860Y0085090D02*
X0125337Y0085090D01*
X0086243Y0085090D02*
X0039239Y0085090D01*
X0039256Y0086088D02*
X0086243Y0086088D01*
X0086243Y0084091D02*
X0039221Y0084091D01*
X0039204Y0083093D02*
X0086243Y0083093D01*
X0086243Y0082094D02*
X0039186Y0082094D01*
X0039169Y0081096D02*
X0086243Y0081096D01*
X0086243Y0080097D02*
X0039151Y0080097D01*
X0039134Y0079099D02*
X0086243Y0079099D01*
X0069254Y0072109D02*
X0056613Y0072109D01*
X0056613Y0071111D02*
X0069254Y0071111D01*
X0069254Y0070112D02*
X0056613Y0070112D01*
X0056613Y0069114D02*
X0069254Y0069114D01*
X0069254Y0068115D02*
X0056613Y0068115D01*
X0056613Y0067117D02*
X0069254Y0067117D01*
X0069254Y0066118D02*
X0056613Y0066118D01*
X0056613Y0065120D02*
X0069254Y0065120D01*
X0069254Y0064121D02*
X0056613Y0064121D01*
X0056613Y0063122D02*
X0069254Y0063122D01*
X0069254Y0062124D02*
X0056489Y0062124D01*
X0056613Y0062247D02*
X0055734Y0061369D01*
X0041830Y0061369D01*
X0040951Y0062247D01*
X0040951Y0076152D01*
X0041830Y0077030D01*
X0055734Y0077030D01*
X0056613Y0076152D01*
X0056613Y0062247D01*
X0069254Y0061125D02*
X0039553Y0061125D01*
X0039806Y0060127D02*
X0069254Y0060127D01*
X0069254Y0059128D02*
X0039806Y0059128D01*
X0039806Y0058130D02*
X0069254Y0058130D01*
X0069254Y0057131D02*
X0039806Y0057131D01*
X0039806Y0056133D02*
X0069254Y0056133D01*
X0069254Y0055134D02*
X0039806Y0055134D01*
X0039806Y0054136D02*
X0069254Y0054136D01*
X0069254Y0053137D02*
X0039806Y0053137D01*
X0039806Y0052139D02*
X0069254Y0052139D01*
X0069254Y0051140D02*
X0039806Y0051140D01*
X0039806Y0050142D02*
X0069254Y0050142D01*
X0069254Y0049143D02*
X0039806Y0049143D01*
X0039806Y0048145D02*
X0069254Y0048145D01*
X0069254Y0047146D02*
X0039806Y0047146D01*
X0039806Y0046148D02*
X0069254Y0046148D01*
X0041075Y0062124D02*
X0038836Y0062124D01*
X0038853Y0063122D02*
X0040951Y0063122D01*
X0040951Y0064121D02*
X0038871Y0064121D01*
X0038889Y0065120D02*
X0040951Y0065120D01*
X0040951Y0066118D02*
X0038906Y0066118D01*
X0038924Y0067117D02*
X0040951Y0067117D01*
X0040951Y0068115D02*
X0038941Y0068115D01*
X0038959Y0069114D02*
X0040951Y0069114D01*
X0040951Y0070112D02*
X0038976Y0070112D01*
X0038994Y0071111D02*
X0040951Y0071111D01*
X0040951Y0072109D02*
X0039011Y0072109D01*
X0039029Y0073108D02*
X0040951Y0073108D01*
X0040951Y0074106D02*
X0039046Y0074106D01*
X0039064Y0075105D02*
X0040951Y0075105D01*
X0040951Y0076103D02*
X0039081Y0076103D01*
X0039274Y0087087D02*
X0197860Y0087087D01*
X0197860Y0088085D02*
X0039291Y0088085D01*
X0039309Y0089084D02*
X0197860Y0089084D01*
X0197860Y0090082D02*
X0039326Y0090082D01*
X0124806Y0064121D02*
X0127522Y0064121D01*
X0129522Y0064121D02*
X0136577Y0064121D01*
X0136577Y0065120D02*
X0129522Y0065120D01*
X0139333Y0059128D02*
X0163743Y0059128D01*
X0163743Y0058130D02*
X0139333Y0058130D01*
X0147994Y0058130D01*
X0147994Y0057131D02*
X0139333Y0057131D01*
X0163743Y0057131D01*
X0163743Y0056133D02*
X0139333Y0056133D01*
X0147994Y0056133D01*
X0147994Y0055134D02*
X0139333Y0055134D01*
X0163743Y0055134D01*
X0163743Y0054136D02*
X0139436Y0054136D01*
X0139333Y0054136D02*
X0147994Y0054136D01*
X0147424Y0046148D02*
X0153289Y0046148D01*
X0151931Y0045577D02*
X0148782Y0045577D01*
X0148782Y0036916D01*
X0151931Y0036916D01*
X0151931Y0045577D01*
X0151931Y0045149D02*
X0148782Y0045149D01*
X0148782Y0044151D02*
X0151931Y0044151D01*
X0151931Y0043152D02*
X0148782Y0043152D01*
X0148782Y0042154D02*
X0151931Y0042154D01*
X0151931Y0041155D02*
X0148782Y0041155D01*
X0148782Y0040157D02*
X0151931Y0040157D01*
X0151931Y0039158D02*
X0148782Y0039158D01*
X0148782Y0038160D02*
X0151931Y0038160D01*
X0151931Y0037161D02*
X0148782Y0037161D01*
X0148029Y0036163D02*
X0152685Y0036163D01*
X0153683Y0035164D02*
X0147030Y0035164D01*
X0159806Y0032169D02*
X0172427Y0032169D01*
X0169431Y0035164D02*
X0160416Y0035164D01*
X0174766Y0044151D02*
X0196734Y0044151D01*
X0196734Y0045149D02*
X0174766Y0045149D01*
X0196734Y0025179D02*
X0121758Y0025179D01*
X0121967Y0024181D02*
X0196734Y0024181D01*
X0196734Y0023182D02*
X0121967Y0023182D01*
X0121967Y0022184D02*
X0196734Y0022184D01*
X0196734Y0021185D02*
X0121967Y0021185D01*
X0121967Y0020187D02*
X0196734Y0020187D01*
X0196734Y0019188D02*
X0121967Y0019188D01*
X0121967Y0018189D02*
X0196734Y0018189D01*
X0196734Y0017191D02*
X0121967Y0017191D01*
X0121967Y0016192D02*
X0196734Y0016192D01*
X0196734Y0015194D02*
X0121967Y0015194D01*
X0121967Y0014195D02*
X0196877Y0014195D01*
X0197601Y0013197D02*
X0121967Y0013197D01*
X0121967Y0012198D02*
X0197601Y0012198D01*
X0197601Y0011200D02*
X0121967Y0011200D01*
X0121102Y0010201D02*
X0197601Y0010201D01*
X0197601Y0009203D02*
X0038287Y0009203D01*
X0038287Y0008204D02*
X0197601Y0008204D01*
D26*
X0192876Y0010932D03*
X0185002Y0010932D03*
X0177128Y0010932D03*
X0169254Y0010932D03*
X0161380Y0010932D03*
X0153506Y0010932D03*
X0145632Y0010932D03*
X0137758Y0010932D03*
X0129884Y0010932D03*
X0098388Y0011719D03*
X0090514Y0011719D03*
X0082640Y0011719D03*
X0074766Y0011719D03*
X0066892Y0011719D03*
X0059018Y0011719D03*
X0051144Y0011719D03*
X0043270Y0011719D03*
X0043270Y0029042D03*
X0051144Y0029042D03*
X0059018Y0029042D03*
X0081853Y0030617D03*
X0090514Y0030617D03*
X0098388Y0030617D03*
X0114136Y0030617D03*
X0122010Y0030617D03*
X0129884Y0030617D03*
X0137758Y0030617D03*
X0145632Y0030617D03*
X0153506Y0030617D03*
X0161380Y0030617D03*
X0169254Y0029042D03*
X0177128Y0027467D03*
X0185002Y0027467D03*
X0192876Y0027467D03*
X0192876Y0046365D03*
X0185002Y0046365D03*
X0177128Y0046365D03*
X0160593Y0050302D03*
X0153506Y0050302D03*
X0145632Y0050302D03*
X0145632Y0058176D03*
X0153506Y0058176D03*
X0160593Y0058176D03*
X0157443Y0064475D03*
X0151931Y0069199D03*
X0167680Y0077073D03*
X0162168Y0082585D03*
X0167680Y0087310D03*
X0175554Y0087310D03*
X0183428Y0087310D03*
X0191302Y0087310D03*
X0191302Y0080223D03*
X0173191Y0071562D03*
X0153506Y0087310D03*
X0145632Y0087310D03*
X0137758Y0087310D03*
X0129884Y0087310D03*
X0082640Y0087310D03*
X0074766Y0087310D03*
X0066892Y0087310D03*
X0059018Y0087310D03*
X0051144Y0087310D03*
X0043270Y0087310D03*
X0043270Y0079436D03*
X0066105Y0071562D03*
X0072404Y0076286D03*
X0080278Y0076286D03*
X0066105Y0063688D03*
X0066105Y0055814D03*
X0085002Y0053451D03*
X0093664Y0053451D03*
X0110199Y0054239D03*
X0118073Y0054239D03*
X0124963Y0060538D03*
X0114136Y0047152D03*
X0105475Y0039278D03*
X0093664Y0045577D03*
X0085002Y0045577D03*
X0066105Y0047940D03*
X0059018Y0047940D03*
X0051144Y0047940D03*
X0043270Y0047940D03*
X0098388Y0021168D03*
D27*
X0063546Y0038333D02*
X0048606Y0038333D01*
X0174766Y0037703D02*
X0187107Y0037703D01*
D28*
X0144018Y0040853D02*
X0143782Y0040617D01*
X0125002Y0040617D02*
X0124460Y0040074D01*
X0097559Y0038404D02*
X0088003Y0038404D01*
X0087916Y0038491D01*
X0082798Y0038333D02*
X0074766Y0038333D01*
X0074766Y0048451D01*
X0075160Y0048451D01*
X0075160Y0055932D02*
X0075160Y0066483D01*
X0075081Y0066562D01*
X0082561Y0066562D02*
X0086065Y0066562D01*
X0091695Y0060932D01*
X0100947Y0060932D01*
X0101144Y0061129D01*
X0110593Y0061129D01*
X0117089Y0061129D01*
X0134609Y0078648D01*
X0142325Y0078648D01*
X0142483Y0078806D01*
X0142640Y0078648D01*
X0155081Y0078648D01*
X0169057Y0064672D01*
X0169057Y0055814D01*
X0135672Y0061522D02*
X0134215Y0062979D01*
X0134215Y0068806D01*
X0136735Y0071325D01*
X0142483Y0071325D01*
X0074766Y0038333D02*
X0071617Y0038333D01*
X0071617Y0032743D01*
X0071420Y0032743D01*
X0071617Y0038333D02*
X0063546Y0038333D01*
D29*
X0082798Y0038333D02*
X0082798Y0038491D01*
X0113706Y0040074D02*
X0124460Y0040074D01*
X0135239Y0040617D02*
X0143782Y0040617D01*
X0156853Y0040853D02*
X0169057Y0040853D01*
X0169057Y0048333D01*
X0169057Y0040853D02*
X0171617Y0040853D01*
X0174766Y0037703D01*
X0187107Y0037703D02*
X0187934Y0036877D01*
D30*
X0071498Y0031837D02*
X0071420Y0032743D01*
D31*
X0110908Y0061444D02*
X0110908Y0071995D01*
D32*
X0110908Y0061444D02*
X0110593Y0061129D01*
D33*
X0048782Y0069199D03*
X0114136Y0018018D03*
X0186577Y0067625D03*
M02*
