G75*
%MOIN*%
%OFA0B0*%
%FSLAX25Y25*%
%IPPOS*%
%LPD*%
%AMOC8*
5,1,8,0,0,1.08239X$1,22.5*
%
%ADD10R,0.02756X0.03543*%
%ADD11R,0.03543X0.02756*%
%ADD12R,0.03937X0.05512*%
%ADD13R,0.02402X0.04902*%
%ADD14R,0.04094X0.07087*%
%ADD15R,0.05118X0.05906*%
%ADD16R,0.05906X0.05118*%
%ADD17R,0.07087X0.05906*%
%ADD18R,0.01575X0.05512*%
%ADD19R,0.03110X0.06614*%
%ADD20R,0.08110X0.06614*%
%ADD21R,0.03110X0.08307*%
%ADD22R,0.02362X0.03150*%
%ADD23R,0.03150X0.03543*%
%ADD24R,0.20000X0.09000*%
D10*
X0082798Y0038491D03*
X0087916Y0038491D03*
X0135672Y0061522D03*
X0140790Y0061522D03*
D11*
X0101144Y0061129D03*
X0101144Y0056010D03*
D12*
X0071498Y0031837D03*
X0067758Y0023176D03*
X0075239Y0023176D03*
D13*
X0150435Y0037605D03*
X0150435Y0044810D03*
D14*
X0144018Y0040853D03*
X0156853Y0040853D03*
D15*
X0082561Y0066562D03*
X0075081Y0066562D03*
D16*
X0075160Y0055932D03*
X0075160Y0048451D03*
X0142483Y0071325D03*
X0142483Y0078806D03*
X0169057Y0055814D03*
X0169057Y0048333D03*
D17*
X0120294Y0082625D03*
X0091286Y0082625D03*
D18*
X0100672Y0071995D03*
X0103231Y0071995D03*
X0105790Y0071995D03*
X0108349Y0071995D03*
X0110908Y0071995D03*
D19*
X0125002Y0053609D03*
X0125002Y0040617D03*
X0135239Y0040617D03*
D20*
X0132876Y0053609D03*
D21*
X0130120Y0042231D03*
D22*
G36*
X0113428Y0038126D02*
X0111758Y0039796D01*
X0113984Y0042022D01*
X0115654Y0040352D01*
X0113428Y0038126D01*
G37*
G36*
X0097837Y0040352D02*
X0099507Y0038682D01*
X0097281Y0036456D01*
X0095611Y0038126D01*
X0097837Y0040352D01*
G37*
G36*
X0104519Y0029218D02*
X0102849Y0030888D01*
X0105075Y0033114D01*
X0106745Y0031444D01*
X0104519Y0029218D01*
G37*
D23*
G36*
X0104102Y0047450D02*
X0106329Y0049677D01*
X0108832Y0047174D01*
X0106605Y0044947D01*
X0104102Y0047450D01*
G37*
D24*
X0048606Y0020933D03*
X0048606Y0038333D03*
X0048606Y0055733D03*
X0187934Y0054277D03*
X0187934Y0036877D03*
X0187934Y0019477D03*
M02*
