%
M48
M72
T01C0.0197
T02C0.0866
%
T01
X4327Y1172
X5114Y1172
X5902Y1172
X6689Y1172
X7477Y1172
X8264Y1172
X9051Y1172
X9839Y1172
X9839Y2117
X9839Y3062
X9051Y3062
X8185Y3062
X5902Y2904
X5114Y2904
X4327Y2904
X8500Y4558
X9366Y4558
X10547Y3928
X11414Y4715
X11807Y5424
X11020Y5424
X12496Y6054
X14563Y5818
X15351Y5818
X16059Y5818
X15744Y6448
X15193Y6920
X16768Y7707
X16217Y8259
X16768Y8731
X17555Y8731
X18343Y8731
X19130Y8731
X19130Y8022
X17319Y7156
X15351Y8731
X14563Y8731
X13776Y8731
X12988Y8731
X8264Y8731
X7477Y8731
X6689Y8731
X5902Y8731
X5114Y8731
X4327Y8731
X4327Y7944
X6610Y7156
X7240Y7629
X8028Y7629
X6610Y6369
X6610Y5581
X8500Y5345
X9366Y5345
X6610Y4794
X5902Y4794
X5114Y4794
X4327Y4794
X11414Y3062
X12201Y3062
X12988Y3062
X13776Y3062
X14563Y3062
X15351Y3062
X16138Y3062
X16925Y2904
X17713Y2747
X18500Y2747
X19288Y2747
X19288Y1093
X18500Y1093
X17713Y1093
X16925Y1093
X16138Y1093
X15351Y1093
X14563Y1093
X13776Y1093
X12988Y1093
X17713Y4636
X18500Y4636
X19288Y4636
X16059Y5030
X15351Y5030
X14563Y5030
T02
X18658Y6762
X11414Y1802
X4878Y6920
M30
