G75*
%MOIN*%
%OFA0B0*%
%FSLAX25Y25*%
%IPPOS*%
%LPD*%
%AMOC8*
5,1,8,0,0,1.08239X$1,22.5*
%
%ADD10R,0.03556X0.04343*%
%ADD11R,0.04343X0.03556*%
%ADD12R,0.04737X0.06312*%
%ADD13R,0.03202X0.05702*%
%ADD14R,0.04894X0.07887*%
%ADD15R,0.05918X0.06706*%
%ADD16R,0.06706X0.05918*%
%ADD17R,0.07874X0.06693*%
%ADD18R,0.02375X0.06312*%
%ADD19R,0.03910X0.07414*%
%ADD20R,0.08910X0.07414*%
%ADD21R,0.03910X0.09107*%
%ADD22R,0.03162X0.03950*%
%ADD23R,0.03950X0.04343*%
%ADD24R,0.20800X0.09800*%
%ADD25R,0.13461X0.13461*%
D10*
X0082798Y0038491D03*
X0087916Y0038491D03*
X0135672Y0061522D03*
X0140790Y0061522D03*
D11*
X0101144Y0061129D03*
X0101144Y0056010D03*
D12*
X0071498Y0031837D03*
X0067758Y0023176D03*
X0075239Y0023176D03*
D13*
X0150435Y0037605D03*
X0150435Y0044810D03*
D14*
X0144018Y0040853D03*
X0156853Y0040853D03*
D15*
X0082561Y0066562D03*
X0075081Y0066562D03*
D16*
X0075160Y0055932D03*
X0075160Y0048451D03*
X0142483Y0071325D03*
X0142483Y0078806D03*
X0169057Y0055814D03*
X0169057Y0048333D03*
D17*
X0120294Y0082625D03*
X0091286Y0082625D03*
D18*
X0100672Y0071995D03*
X0103231Y0071995D03*
X0105790Y0071995D03*
X0108349Y0071995D03*
X0110908Y0071995D03*
D19*
X0125002Y0053609D03*
X0125002Y0040617D03*
X0135239Y0040617D03*
D20*
X0132876Y0053609D03*
D21*
X0130120Y0042231D03*
D22*
G36*
X0113428Y0037560D02*
X0111192Y0039796D01*
X0113984Y0042588D01*
X0116220Y0040352D01*
X0113428Y0037560D01*
G37*
G36*
X0097837Y0040918D02*
X0100073Y0038682D01*
X0097281Y0035890D01*
X0095045Y0038126D01*
X0097837Y0040918D01*
G37*
G36*
X0104519Y0028652D02*
X0102283Y0030888D01*
X0105075Y0033680D01*
X0107311Y0031444D01*
X0104519Y0028652D01*
G37*
D23*
G36*
X0103536Y0047450D02*
X0106329Y0050243D01*
X0109398Y0047174D01*
X0106605Y0044381D01*
X0103536Y0047450D01*
G37*
D24*
X0048606Y0020933D03*
X0048606Y0038333D03*
X0048606Y0055733D03*
X0187934Y0054277D03*
X0187934Y0036877D03*
X0187934Y0019477D03*
D25*
X0114136Y0018018D03*
X0186577Y0067625D03*
X0048782Y0069199D03*
M02*
